<svg width="23" height="21" fill="none" xmlns="http://www.w3.org/2000/svg"><path fill-rule="evenodd" clip-rule="evenodd" d="M3.15 2.408a7.57 7.57 0 00-.496-.008H1A.9.9 0 111 .6H2.681c.216 0 .425 0 .603.013.197.015.42.05.649.152a1.9 1.9 0 01.803.675c.14.208.212.422.26.613.044.173.08.38.117.593l.004.026.253 1.45 13.057.387h.035c.513.016.95.029 1.309.068.377.042.744.12 1.092.305A2.9 2.9 0 0122.1 6.154c.175.355.242.723.272 1.102.029.36.029.797.029 1.31v.068c0 .482 0 .894-.026 1.235-.028.36-.09.71-.25 1.05a2.9 2.9 0 01-1.142 1.258c-.323.192-.666.287-1.021.35-.337.059-.747.099-1.227.145l-.033.003-9.662.935-.033.003c-.492.048-.912.089-1.262.095-.369.006-.73-.023-1.091-.155a2.9 2.9 0 01-1.36-1.036c-.223-.312-.347-.653-.438-1.01-.087-.34-.16-.755-.244-1.242l-.006-.033-.883-5.078-.378-2.174a7.571 7.571 0 00-.093-.486.779.779 0 00-.017-.06.1.1 0 00-.022-.019.775.775 0 00-.063-.007zm2.534 3.524l.694 3.991c.092.53.153.875.22 1.136.065.251.118.353.16.412a1.1 1.1 0 00.515.392c.068.025.18.05.44.045.27-.005.618-.038 1.153-.09l9.661-.934c.522-.051.862-.085 1.122-.13.248-.044.352-.088.413-.124.189-.113.34-.279.433-.477.03-.064.064-.172.084-.424.02-.262.021-.604.021-1.129 0-.556 0-.921-.023-1.2-.022-.269-.059-.381-.091-.447a1.1 1.1 0 00-.469-.482c-.064-.034-.175-.075-.443-.105a16.81 16.81 0 00-1.2-.058l-12.69-.376zM8.5 16.9a1.1 1.1 0 100 2.2 1.1 1.1 0 000-2.2zM5.6 18a2.9 2.9 0 115.8 0 2.9 2.9 0 01-5.8 0zm11.3 0a1.1 1.1 0 112.2 0 1.1 1.1 0 01-2.2 0zm1.1-2.9a2.9 2.9 0 100 5.8 2.9 2.9 0 000-5.8z" fill="#262F56"/></svg>