<svg width="24" height="24" fill="none" xmlns="http://www.w3.org/2000/svg"><path fill-rule="evenodd" clip-rule="evenodd" d="M12 20.023c-4.64-2.635-7.236-5.26-8.493-7.55-1.283-2.336-1.177-4.319-.455-5.734 1.478-2.9 5.684-3.828 8.242-.593l.705.893.707-.893c2.558-3.235 6.764-2.307 8.242.593.721 1.415.827 3.398-.456 5.735-1.257 2.288-3.852 4.914-8.492 7.549zm0-15.778C8.52.856 3.337 2.215 1.448 5.922.42 7.939.4 10.555 1.93 13.34c1.517 2.763 4.548 5.69 9.634 8.502l.436.24.435-.24c5.086-2.811 8.118-5.74 9.635-8.502 1.53-2.785 1.51-5.4.482-7.418C20.662 2.215 15.48.856 12 4.245z" fill="#262F56"/></svg>